<mxfile host="app.diagrams.net" modified="2023-08-30T06:15:12.904Z" agent="Mozilla/5.0 (Windows NT 10.0; Win64; x64) AppleWebKit/537.36 (KHTML, like Gecko) Chrome/107.0.0.0 Safari/537.36" version="21.7.0" etag="T4Jxgmx82r6RdV6JSeMR" type="github">
  <diagram name="第 1 页" id="coook3Njcy-2z_Uwu-QS">
    <mxGraphModel>
      <root>
        <mxCell id="0" />
        <mxCell id="1" parent="0" />
      </root>
    </mxGraphModel>
  </diagram>
</mxfile>
